<svg width="27" height="27" viewBox="0 0 27 27" fill="none" xmlns="http://www.w3.org/2000/svg">
<path d="M26.3237 13.7553L14.3237 0.422C13.8183 -0.140667 12.8477 -0.140667 12.3423 0.422L0.342318 13.7553C0.169906 13.9469 0.0567013 14.1843 0.0164025 14.4388C-0.0238963 14.6934 0.0104377 14.9542 0.11525 15.1896C0.220062 15.425 0.390861 15.6251 0.606978 15.7655C0.823095 15.9058 1.07527 15.9806 1.33298 15.9807H3.99965V25.314C3.99965 25.6676 4.14013 26.0068 4.39018 26.2568C4.64022 26.5069 4.97936 26.6473 5.33298 26.6473H21.333C21.6866 26.6473 22.0257 26.5069 22.2758 26.2568C22.5258 26.0068 22.6663 25.6676 22.6663 25.314V15.9807H25.333C25.5912 15.9818 25.8442 15.9077 26.061 15.7675C26.2779 15.6273 26.4493 15.4271 26.5543 15.1912C26.6593 14.9553 26.6934 14.6939 26.6525 14.439C26.6115 14.184 26.4973 13.9465 26.3237 13.7553ZM13.333 18.6473C12.2721 18.6473 11.2547 18.2259 10.5046 17.4758C9.75441 16.7256 9.33298 15.7082 9.33298 14.6473C9.33298 13.5865 9.75441 12.5691 10.5046 11.8189C11.2547 11.0688 12.2721 10.6473 13.333 10.6473C14.3939 10.6473 15.4113 11.0688 16.1614 11.8189C16.9116 12.5691 17.333 13.5865 17.333 14.6473C17.333 15.7082 16.9116 16.7256 16.1614 17.4758C15.4113 18.2259 14.3939 18.6473 13.333 18.6473Z" fill="#146BCA"/>
</svg>
